<svg width="64" height="64" fill="none" xmlns="http://www.w3.org/2000/svg"><path d="M62 4a2 2 0 0 0-2-2H30a2 2 0 0 0-2 2v21.839c0 1.677 1.94 2.61 3.25 1.562l6.202-4.963a2 2 0 0 1 1.25-.438H60a2 2 0 0 0 2-2V4Z" fill="#fff" stroke="#00AD0C"></path><path d="M50 44a6 6 0 1 0 0-12 6 6 0 0 0 0 12ZM14 44a6 6 0 1 0 0-12 6 6 0 0 0 0 12ZM24 62a2 2 0 0 0 2-2v-3.965a4 4 0 0 0-1.967-3.449C22.088 51.435 18.716 50 14 50c-4.777 0-8.127 1.426-10.052 2.575A3.996 3.996 0 0 0 2 56.013V60a2 2 0 0 0 2 2h20ZM60 62a2 2 0 0 0 2-2v-3.965a4 4 0 0 0-1.967-3.449C58.088 51.435 54.716 50 50 50c-4.777 0-8.127 1.426-10.052 2.575A3.996 3.996 0 0 0 38 56.013V60a2 2 0 0 0 2 2h20Z" fill="#CDFFC7" stroke="#00AD0C"></path></svg>