<svg width="64" height="64" fill="none" xmlns="http://www.w3.org/2000/svg"><path d="M54 16H10a8 8 0 0 0-8 8v28a8 8 0 0 0 8 8h44a8 8 0 0 0 8-8V24a8 8 0 0 0-8-8Z" fill="#CDFFC7" stroke="#00AD0C"></path><path d="M46.233 25.982C45.973 24.908 45.105 24 44 24H20c-1.105 0-1.974.908-2.233 1.982a7.792 7.792 0 0 1-5.785 5.785C10.908 32.027 10 32.895 10 34v8c0 1.105.908 1.974 1.982 2.233a7.792 7.792 0 0 1 5.785 5.785C18.027 51.092 18.895 52 20 52h24c1.105 0 1.974-.908 2.233-1.982a7.792 7.792 0 0 1 5.785-5.785C53.092 43.973 54 43.105 54 42v-8c0-1.105-.908-1.974-1.982-2.233a7.792 7.792 0 0 1-5.785-5.785Z" fill="#fff" stroke="#00AD0C"></path><path d="M32 44a6 6 0 1 0 0-12 6 6 0 0 0 0 12ZM12 10h40M22 4h20" stroke="#00AD0C"></path></svg>