<svg width="64" height="64" fill="none" xmlns="http://www.w3.org/2000/svg"><path d="M2 20h60v32a4 4 0 0 1-4 4H6a4 4 0 0 1-4-4V20Z" fill="#fff" stroke="#00AD0C"></path><path d="M2 12a4 4 0 0 1 4-4h52a4 4 0 0 1 4 4v8H2v-8Z" fill="#CDFFC7" stroke="#00AD0C"></path><path d="M30.992 30.71c-1.333-.762-2.992.2-2.992 1.736v9.108c0 1.535 1.659 2.498 2.992 1.736l7.97-4.553c1.343-.768 1.343-2.706 0-3.474l-7.97-4.553Z" stroke="#00AD0C"></path><path d="M47 16a2 2 0 1 0 0-4 2 2 0 0 0 0 4ZM55 16a2 2 0 1 0 0-4 2 2 0 0 0 0 4Z" fill="#00AD0C"></path></svg>