<svg width="64" height="64" fill="none" xmlns="http://www.w3.org/2000/svg"><path d="M16.336 17.443a1.888 1.888 0 0 0-2.671 0L2.782 29.438a3.763 3.763 0 0 0 0 5.12v.006L13.665 46.56a1.89 1.89 0 0 0 3.224-1.34V18.773c-.001-.499-.2-.977-.553-1.33ZM32 60.414a1.813 1.813 0 0 0 1.193 1.7c.231.084.477.12.723.105C49.714 61.222 62.222 48.077 62.222 32c0-16.076-12.51-29.227-28.306-30.219a1.801 1.801 0 0 0-1.768 1.087 1.81 1.81 0 0 0-.148.718v11.338a2.076 2.076 0 0 0 1.848 2.047 15.103 15.103 0 0 1 9.463 5 15.157 15.157 0 0 1 0 20.05 15.104 15.104 0 0 1-9.463 5A2.07 2.07 0 0 0 32 49.068v11.346Z" fill="#fff" stroke="#00AD0C"></path></svg>