<svg width="64" height="64" fill="none" xmlns="http://www.w3.org/2000/svg"><path d="M38 12h8a6 6 0 0 1 6 6v2" stroke="#00AD0C"></path><path d="m44 6-6 6 6 6M26 52h-8a6 6 0 0 1-6-6v-2" stroke="#00AD0C"></path><path d="m20 58 6-6-6-6" stroke="#00AD0C"></path><rect x="34" y="26" width="24" height="36" rx="4" fill="#CDFFC7" stroke="#00AD0C"></rect><path d="M53 37a1 1 0 0 1-1 1H40a1 1 0 0 1-1-1v-4a1 1 0 0 1 1-1h12a1 1 0 0 1 1 1v4Z" fill="#fff" stroke="#00AD0C"></path><circle cx="40" cy="44" r="2" fill="#00AD0C"></circle><circle cx="40" cy="50" r="2" fill="#00AD0C"></circle><circle cx="40" cy="56" r="2" fill="#00AD0C"></circle><circle cx="46" cy="50" r="2" fill="#00AD0C"></circle><circle cx="46" cy="44" r="2" fill="#00AD0C"></circle><circle cx="46" cy="56" r="2" fill="#00AD0C"></circle><circle cx="52" cy="44" r="2" fill="#00AD0C"></circle><circle cx="52" cy="50" r="2" fill="#00AD0C"></circle><circle cx="52" cy="56" r="2" fill="#00AD0C"></circle><rect x="2" y="2" width="24" height="36" rx="4" fill="#CDFFC7" stroke="#00AD0C"></rect><path d="M21 13a1 1 0 0 1-1 1H8a1 1 0 0 1-1-1V9a1 1 0 0 1 1-1h12a1 1 0 0 1 1 1v4Z" fill="#fff" stroke="#00AD0C"></path><circle cx="8" cy="20" r="2" fill="#00AD0C"></circle><circle cx="8" cy="26" r="2" fill="#00AD0C"></circle><circle cx="8" cy="32" r="2" fill="#00AD0C"></circle><circle cx="14" cy="26" r="2" fill="#00AD0C"></circle><circle cx="14" cy="20" r="2" fill="#00AD0C"></circle><circle cx="14" cy="32" r="2" fill="#00AD0C"></circle><circle cx="20" cy="20" r="2" fill="#00AD0C"></circle><circle cx="20" cy="26" r="2" fill="#00AD0C"></circle><circle cx="20" cy="32" r="2" fill="#00AD0C"></circle></svg>