<svg width="130" height="48" viewBox="0 0 130 48" fill="none" xmlns="http://www.w3.org/2000/svg">
<path d="M40.1613 47.9995C34.3225 47.9995 28.8388 45.6464 24.7025 41.3829C23.5744 40.2171 23.5744 38.3174 24.7025 37.1409C25.8306 35.9752 27.6689 35.9752 28.8074 37.1409C31.8365 40.2711 35.8684 41.9981 40.1613 41.9981C44.4543 41.9981 48.4861 40.2711 51.5152 37.1409C52.6432 35.9752 54.4816 35.9752 55.6201 37.1409C56.7482 38.3066 56.7482 40.2063 55.6201 41.3829C51.4838 45.6572 46.0001 47.9995 40.1613 47.9995Z" fill="#00C700"/>
<path d="M52.4763 8.01953C45.6347 8.01953 40.2241 13.4596 40.2241 20.508V27.9881C40.2241 29.7906 41.6447 31.2478 43.389 31.2478C45.1333 31.2478 46.5539 29.7906 46.5539 27.9881V20.2813C46.5539 16.6006 49.3636 14.0749 52.4763 14.0749C55.5889 14.0749 58.6702 16.6006 58.6702 20.2813V27.9881C58.6702 29.7906 60.0908 31.2478 61.8351 31.2478C63.5795 31.2478 65 29.7906 65 27.9881V20.508C64.9896 13.4596 59.3074 8.01953 52.4763 8.01953Z" fill="#00C700"/>
<path d="M0 20.9292C0 26.7794 4.0736 30.8379 9.45285 31.2157C9.74531 31.2372 10.5914 31.2696 11.1136 31.248C12.7326 31.248 14.0487 29.888 14.0487 28.215C14.0487 26.5419 12.7326 25.1819 11.1136 25.1819H10.2571C8.00097 25.1819 6.39242 23.3254 6.31931 21.0695V13.9995H11.1763C12.764 13.9995 14.0487 12.6719 14.0487 11.0313C14.0487 9.3906 12.764 8.06296 11.1763 8.06296H6.31931V3.25973C6.31931 1.45716 4.90921 0 3.16488 0C1.42054 0 0 1.45716 0 3.25973V11.0421V20.9292Z" fill="#00C700"/>
<path d="M26.75 8.01953C20.4203 8.01953 15.2812 13.3301 15.2812 19.8711C15.2812 26.4122 20.4203 31.7227 26.75 31.7227C33.0798 31.7227 38.2188 26.4122 38.2188 19.8711C38.2188 13.3301 33.0902 8.01953 26.75 8.01953ZM26.75 25.6242C23.6269 25.6242 21.0992 23.0553 21.0992 19.8711C21.0992 16.6869 23.6269 14.118 26.75 14.118C29.8731 14.118 32.4008 16.6869 32.4008 19.8711C32.4008 23.0553 29.8731 25.6242 26.75 25.6242Z" fill="#00C700"/>
<path d="M75.5195 26.9941V30H73.7617V21.4688H77.0898C77.7305 21.4688 78.293 21.5859 78.7773 21.8203C79.2656 22.0547 79.6406 22.3887 79.9023 22.8223C80.1641 23.252 80.2949 23.7422 80.2949 24.293C80.2949 25.1289 80.0078 25.7891 79.4336 26.2734C78.8633 26.7539 78.0723 26.9941 77.0605 26.9941H75.5195ZM75.5195 25.5703H77.0898C77.5547 25.5703 77.9082 25.4609 78.1504 25.2422C78.3965 25.0234 78.5195 24.7109 78.5195 24.3047C78.5195 23.8867 78.3965 23.5488 78.1504 23.291C77.9043 23.0332 77.5645 22.9004 77.1309 22.8926H75.5195V25.5703ZM85.2812 28.2422H82.1992L81.6133 30H79.7441L82.9199 21.4688H84.5488L87.7422 30H85.873L85.2812 28.2422ZM82.6738 26.8184H84.8066L83.7344 23.625L82.6738 26.8184ZM91.6973 26.877H90.2969V30H88.5391V21.4688H91.709C92.7168 21.4688 93.4941 21.6934 94.041 22.1426C94.5879 22.5918 94.8613 23.2266 94.8613 24.0469C94.8613 24.6289 94.7344 25.1152 94.4805 25.5059C94.2305 25.8926 93.8496 26.2012 93.3379 26.4316L95.1836 29.918V30H93.2969L91.6973 26.877ZM90.2969 25.4531H91.7148C92.1562 25.4531 92.498 25.3418 92.7402 25.1191C92.9824 24.8926 93.1035 24.582 93.1035 24.1875C93.1035 23.7852 92.9883 23.4688 92.7578 23.2383C92.5312 23.0078 92.1816 22.8926 91.709 22.8926H90.2969V25.4531ZM102.9 27.1582C102.834 28.0762 102.494 28.7988 101.881 29.3262C101.271 29.8535 100.467 30.1172 99.4668 30.1172C98.373 30.1172 97.5117 29.75 96.8828 29.0156C96.2578 28.2773 95.9453 27.2656 95.9453 25.9805V25.459C95.9453 24.6387 96.0898 23.916 96.3789 23.291C96.668 22.666 97.0801 22.1875 97.6152 21.8555C98.1543 21.5195 98.7793 21.3516 99.4902 21.3516C100.475 21.3516 101.268 21.6152 101.869 22.1426C102.471 22.6699 102.818 23.4102 102.912 24.3633H101.154C101.111 23.8125 100.957 23.4141 100.691 23.168C100.43 22.918 100.029 22.793 99.4902 22.793C98.9043 22.793 98.4648 23.0039 98.1719 23.4258C97.8828 23.8438 97.7344 24.4941 97.7266 25.377V26.0215C97.7266 26.9434 97.8652 27.6172 98.1426 28.043C98.4238 28.4688 98.8652 28.6816 99.4668 28.6816C100.01 28.6816 100.414 28.5586 100.68 28.3125C100.949 28.0625 101.104 27.6777 101.143 27.1582H102.9ZM109.188 26.3027H105.812V28.5879H109.773V30H104.055V21.4688H109.762V22.8926H105.812V24.9258H109.188V26.3027ZM112.674 30H110.916V21.4688H112.674V30ZM117.467 26.877H116.066V30H114.309V21.4688H117.479C118.486 21.4688 119.264 21.6934 119.811 22.1426C120.357 22.5918 120.631 23.2266 120.631 24.0469C120.631 24.6289 120.504 25.1152 120.25 25.5059C120 25.8926 119.619 26.2012 119.107 26.4316L120.953 29.918V30H119.066L117.467 26.877ZM116.066 25.4531H117.484C117.926 25.4531 118.268 25.3418 118.51 25.1191C118.752 24.8926 118.873 24.582 118.873 24.1875C118.873 23.7852 118.758 23.4688 118.527 23.2383C118.301 23.0078 117.951 22.8926 117.479 22.8926H116.066V25.4531ZM128.98 25.9277C128.98 26.7676 128.832 27.5039 128.535 28.1367C128.238 28.7695 127.812 29.2578 127.258 29.6016C126.707 29.9453 126.074 30.1172 125.359 30.1172C124.652 30.1172 124.021 29.9473 123.467 29.6074C122.912 29.2676 122.482 28.7832 122.178 28.1543C121.873 27.5215 121.719 26.7949 121.715 25.9746V25.5527C121.715 24.7129 121.865 23.9746 122.166 23.3379C122.471 22.6973 122.898 22.207 123.449 21.8672C124.004 21.5234 124.637 21.3516 125.348 21.3516C126.059 21.3516 126.689 21.5234 127.24 21.8672C127.795 22.207 128.223 22.6973 128.523 23.3379C128.828 23.9746 128.98 24.7109 128.98 25.5469V25.9277ZM127.199 25.541C127.199 24.6465 127.039 23.9668 126.719 23.502C126.398 23.0371 125.941 22.8047 125.348 22.8047C124.758 22.8047 124.303 23.0352 123.982 23.4961C123.662 23.9531 123.5 24.625 123.496 25.5117V25.9277C123.496 26.7988 123.656 27.4746 123.977 27.9551C124.297 28.4355 124.758 28.6758 125.359 28.6758C125.949 28.6758 126.402 28.4453 126.719 27.9844C127.035 27.5195 127.195 26.8438 127.199 25.957V25.541Z" fill="white"/>
</svg>
